<svg xmlns="http://www.w3.org/2000/svg" viewBox="0 0 250 350" width="250" height="350">
<rect x="3" y="3" width="244" height="344" rx="20" fill="#D9C58E" stroke="#C9BC9E" stroke-width="2"/>
<path d="M3,23 A20,20 0 0 1 23,3 L227,3 A20,20 0 0 1 247,23 L247,34 L3,34 Z" fill="#CDB877"/>
<text x="125.0" y="25" font-family="Inter,Helvetica,Arial,sans-serif" font-size="18" font-weight="700" letter-spacing="2" fill="#4E9367" text-anchor="middle">BASTO</text>
<g transform="translate(30,70) rotate(0)"><text x="0" y="0" font-family="Inter,Helvetica,Arial,sans-serif" font-size="40" font-weight="800" fill="#4E9367" text-anchor="middle">5</text><g transform="translate(-9,8) scale(0.18)"><path d="M41,84 L39,44 Q39,20 50,15 Q61,20 61,44 L59,84 Z"
    fill="#4E9367" stroke="#4E9367" stroke-width="2" stroke-linejoin="round"/>
    <g stroke="#FFFFFF" stroke-width="3.5" stroke-linecap="round" opacity="0.9">
    <line x1="45" y1="32" x2="55" y2="30"/><line x1="44" y1="50" x2="56" y2="48"/>
    <line x1="44" y1="68" x2="56" y2="66"/></g></g></g>
<g transform="translate(220,298) rotate(180)"><text x="0" y="0" font-family="Inter,Helvetica,Arial,sans-serif" font-size="40" font-weight="800" fill="#4E9367" text-anchor="middle">5</text><g transform="translate(-9,8) scale(0.18)"><path d="M41,84 L39,44 Q39,20 50,15 Q61,20 61,44 L59,84 Z"
    fill="#4E9367" stroke="#4E9367" stroke-width="2" stroke-linejoin="round"/>
    <g stroke="#FFFFFF" stroke-width="3.5" stroke-linecap="round" opacity="0.9">
    <line x1="45" y1="32" x2="55" y2="30"/><line x1="44" y1="50" x2="56" y2="48"/>
    <line x1="44" y1="68" x2="56" y2="66"/></g></g></g>
<g transform="translate(64.4,79.8) scale(0.54)"><path d="M41,84 L39,44 Q39,20 50,15 Q61,20 61,44 L59,84 Z"
    fill="#4E9367" stroke="#4E9367" stroke-width="2" stroke-linejoin="round"/>
    <g stroke="#FFFFFF" stroke-width="3.5" stroke-linecap="round" opacity="0.9">
    <line x1="45" y1="32" x2="55" y2="30"/><line x1="44" y1="50" x2="56" y2="48"/>
    <line x1="44" y1="68" x2="56" y2="66"/></g></g>
<g transform="translate(131.6,79.8) scale(0.54)"><path d="M41,84 L39,44 Q39,20 50,15 Q61,20 61,44 L59,84 Z"
    fill="#4E9367" stroke="#4E9367" stroke-width="2" stroke-linejoin="round"/>
    <g stroke="#FFFFFF" stroke-width="3.5" stroke-linecap="round" opacity="0.9">
    <line x1="45" y1="32" x2="55" y2="30"/><line x1="44" y1="50" x2="56" y2="48"/>
    <line x1="44" y1="68" x2="56" y2="66"/></g></g>
<g transform="translate(98.0,158.0) scale(0.54)"><path d="M41,84 L39,44 Q39,20 50,15 Q61,20 61,44 L59,84 Z"
    fill="#4E9367" stroke="#4E9367" stroke-width="2" stroke-linejoin="round"/>
    <g stroke="#FFFFFF" stroke-width="3.5" stroke-linecap="round" opacity="0.9">
    <line x1="45" y1="32" x2="55" y2="30"/><line x1="44" y1="50" x2="56" y2="48"/>
    <line x1="44" y1="68" x2="56" y2="66"/></g></g>
<g transform="translate(64.4,236.2) scale(0.54)"><path d="M41,84 L39,44 Q39,20 50,15 Q61,20 61,44 L59,84 Z"
    fill="#4E9367" stroke="#4E9367" stroke-width="2" stroke-linejoin="round"/>
    <g stroke="#FFFFFF" stroke-width="3.5" stroke-linecap="round" opacity="0.9">
    <line x1="45" y1="32" x2="55" y2="30"/><line x1="44" y1="50" x2="56" y2="48"/>
    <line x1="44" y1="68" x2="56" y2="66"/></g></g>
<g transform="translate(131.6,236.2) scale(0.54)"><path d="M41,84 L39,44 Q39,20 50,15 Q61,20 61,44 L59,84 Z"
    fill="#4E9367" stroke="#4E9367" stroke-width="2" stroke-linejoin="round"/>
    <g stroke="#FFFFFF" stroke-width="3.5" stroke-linecap="round" opacity="0.9">
    <line x1="45" y1="32" x2="55" y2="30"/><line x1="44" y1="50" x2="56" y2="48"/>
    <line x1="44" y1="68" x2="56" y2="66"/></g></g>
</svg>