<svg xmlns="http://www.w3.org/2000/svg" viewBox="0 0 260 364" width="260" height="364">
<defs><linearGradient id="bg" x1="0" y1="0" x2="0" y2="1"><stop offset="0%" stop-color="#FBF5E9"/><stop offset="100%" stop-color="#EFE1C8"/></linearGradient></defs>
<rect x="2.5" y="2.5" width="255" height="359" rx="24" fill="url(#bg)"/>
<rect x="13" y="13" width="234" height="338" rx="17" fill="none" stroke="#C9A24B" stroke-width="1.4"/>
<rect x="18" y="18" width="224" height="328" rx="13" fill="none" stroke="#C9A24B" stroke-opacity="0.45" stroke-width="0.8"/>
<rect x="2.5" y="2.5" width="255" height="359" rx="24" fill="none" stroke="#C9A24B" stroke-opacity="0.5" stroke-width="1.2"/>
<g transform="translate(40,60) rotate(0)"><text x="0" y="0" font-family="'Bodoni Moda','DejaVu Serif',serif" font-size="33" font-weight="600" fill="#2A1410" text-anchor="middle">6</text><g transform="translate(-9,11) scale(0.16)"><g fill="none" stroke="#2A1410" stroke-width="6" stroke-linecap="round" stroke-linejoin="round"><path d="M22,20 L78,20 Q78,53 50,53 Q22,53 22,20 Z"/><line x1="50" y1="53" x2="50" y2="77"/><path d="M30,83 Q50,74 70,83"/></g></g></g>
<g transform="translate(220,320) rotate(180)"><text x="0" y="0" font-family="'Bodoni Moda','DejaVu Serif',serif" font-size="33" font-weight="600" fill="#2A1410" text-anchor="middle">6</text><g transform="translate(-9,11) scale(0.16)"><g fill="none" stroke="#2A1410" stroke-width="6" stroke-linecap="round" stroke-linejoin="round"><path d="M22,20 L78,20 Q78,53 50,53 Q22,53 22,20 Z"/><line x1="50" y1="53" x2="50" y2="77"/><path d="M30,83 Q50,74 70,83"/></g></g></g>
<g transform="translate(67.2,84.8) scale(0.52)"><g fill="none" stroke="#2A1410" stroke-width="6" stroke-linecap="round" stroke-linejoin="round"><path d="M22,20 L78,20 Q78,53 50,53 Q22,53 22,20 Z"/><line x1="50" y1="53" x2="50" y2="77"/><path d="M30,83 Q50,74 70,83"/></g></g>
<g transform="translate(140.8,84.8) scale(0.52)"><g fill="none" stroke="#2A1410" stroke-width="6" stroke-linecap="round" stroke-linejoin="round"><path d="M22,20 L78,20 Q78,53 50,53 Q22,53 22,20 Z"/><line x1="50" y1="53" x2="50" y2="77"/><path d="M30,83 Q50,74 70,83"/></g></g>
<g transform="translate(67.2,164.0) scale(0.52)"><g fill="none" stroke="#2A1410" stroke-width="6" stroke-linecap="round" stroke-linejoin="round"><path d="M22,20 L78,20 Q78,53 50,53 Q22,53 22,20 Z"/><line x1="50" y1="53" x2="50" y2="77"/><path d="M30,83 Q50,74 70,83"/></g></g>
<g transform="translate(140.8,164.0) scale(0.52)"><g fill="none" stroke="#2A1410" stroke-width="6" stroke-linecap="round" stroke-linejoin="round"><path d="M22,20 L78,20 Q78,53 50,53 Q22,53 22,20 Z"/><line x1="50" y1="53" x2="50" y2="77"/><path d="M30,83 Q50,74 70,83"/></g></g>
<g transform="translate(67.2,243.2) scale(0.52)"><g fill="none" stroke="#2A1410" stroke-width="6" stroke-linecap="round" stroke-linejoin="round"><path d="M22,20 L78,20 Q78,53 50,53 Q22,53 22,20 Z"/><line x1="50" y1="53" x2="50" y2="77"/><path d="M30,83 Q50,74 70,83"/></g></g>
<g transform="translate(140.8,243.2) scale(0.52)"><g fill="none" stroke="#2A1410" stroke-width="6" stroke-linecap="round" stroke-linejoin="round"><path d="M22,20 L78,20 Q78,53 50,53 Q22,53 22,20 Z"/><line x1="50" y1="53" x2="50" y2="77"/><path d="M30,83 Q50,74 70,83"/></g></g>
</svg>