<svg xmlns="http://www.w3.org/2000/svg" viewBox="0 0 260 364" width="260" height="364">
<defs><linearGradient id="bg" x1="0" y1="0" x2="0" y2="1"><stop offset="0%" stop-color="#FBF5E9"/><stop offset="100%" stop-color="#EFE1C8"/></linearGradient></defs>
<rect x="2.5" y="2.5" width="255" height="359" rx="24" fill="url(#bg)"/>
<rect x="13" y="13" width="234" height="338" rx="17" fill="none" stroke="#C9A24B" stroke-width="1.4"/>
<rect x="18" y="18" width="224" height="328" rx="13" fill="none" stroke="#C9A24B" stroke-opacity="0.45" stroke-width="0.8"/>
<rect x="2.5" y="2.5" width="255" height="359" rx="24" fill="none" stroke="#C9A24B" stroke-opacity="0.5" stroke-width="1.2"/>
<g transform="translate(40,60) rotate(0)"><text x="0" y="0" font-family="'Bodoni Moda','DejaVu Serif',serif" font-size="33" font-weight="600" fill="#2A1410" text-anchor="middle">2</text><g transform="translate(-9,11) scale(0.16)"><path d="M50,9 L57,21 L57,61 L43,61 L43,21 Z" fill="#2A1410"/><g stroke="#2A1410" stroke-width="6" stroke-linecap="round"><line x1="27" y1="63" x2="73" y2="63"/><line x1="50" y1="63" x2="50" y2="83"/></g><circle cx="50" cy="87" r="5" fill="#2A1410"/></g></g>
<g transform="translate(220,320) rotate(180)"><text x="0" y="0" font-family="'Bodoni Moda','DejaVu Serif',serif" font-size="33" font-weight="600" fill="#2A1410" text-anchor="middle">2</text><g transform="translate(-9,11) scale(0.16)"><path d="M50,9 L57,21 L57,61 L43,61 L43,21 Z" fill="#2A1410"/><g stroke="#2A1410" stroke-width="6" stroke-linecap="round"><line x1="27" y1="63" x2="73" y2="63"/><line x1="50" y1="63" x2="50" y2="83"/></g><circle cx="50" cy="87" r="5" fill="#2A1410"/></g></g>
<g transform="translate(97.0,84.4) scale(0.66)"><path d="M50,9 L57,21 L57,61 L43,61 L43,21 Z" fill="#2A1410"/><g stroke="#2A1410" stroke-width="6" stroke-linecap="round"><line x1="27" y1="63" x2="73" y2="63"/><line x1="50" y1="63" x2="50" y2="83"/></g><circle cx="50" cy="87" r="5" fill="#2A1410"/></g>
<g transform="translate(97.0,229.6) scale(0.66)"><path d="M50,9 L57,21 L57,61 L43,61 L43,21 Z" fill="#2A1410"/><g stroke="#2A1410" stroke-width="6" stroke-linecap="round"><line x1="27" y1="63" x2="73" y2="63"/><line x1="50" y1="63" x2="50" y2="83"/></g><circle cx="50" cy="87" r="5" fill="#2A1410"/></g>
</svg>