<svg xmlns="http://www.w3.org/2000/svg" viewBox="0 0 250 350" width="250" height="350">
<rect x="3" y="3" width="244" height="344" rx="20" fill="#D9C58E" stroke="#C9BC9E" stroke-width="2"/>
<path d="M3,23 A20,20 0 0 1 23,3 L227,3 A20,20 0 0 1 247,23 L247,34 L3,34 Z" fill="#CDB877"/>
<text x="125.0" y="25" font-family="Inter,Helvetica,Arial,sans-serif" font-size="18" font-weight="700" letter-spacing="2" fill="#8A5E0F" text-anchor="middle">ORO</text>
<g transform="translate(30,70) rotate(0)"><text x="0" y="0" font-family="Inter,Helvetica,Arial,sans-serif" font-size="40" font-weight="800" fill="#8A5E0F" text-anchor="middle">3</text><g transform="translate(-9,8) scale(0.18)"><circle cx="50" cy="50" r="40" fill="none" stroke="#8A5E0F" stroke-width="6"/>
    <circle cx="50" cy="50" r="27" fill="none" stroke="#8A5E0F" stroke-width="4"/>
    <circle cx="50" cy="50" r="9" fill="#8A5E0F"/>
    <g stroke="#8A5E0F" stroke-width="4" stroke-linecap="round">
    <line x1="50" y1="13" x2="50" y2="22"/><line x1="50" y1="78" x2="50" y2="87"/>
    <line x1="13" y1="50" x2="22" y2="50"/><line x1="78" y1="50" x2="87" y2="50"/></g></g></g>
<g transform="translate(220,298) rotate(180)"><text x="0" y="0" font-family="Inter,Helvetica,Arial,sans-serif" font-size="40" font-weight="800" fill="#8A5E0F" text-anchor="middle">3</text><g transform="translate(-9,8) scale(0.18)"><circle cx="50" cy="50" r="40" fill="none" stroke="#8A5E0F" stroke-width="6"/>
    <circle cx="50" cy="50" r="27" fill="none" stroke="#8A5E0F" stroke-width="4"/>
    <circle cx="50" cy="50" r="9" fill="#8A5E0F"/>
    <g stroke="#8A5E0F" stroke-width="4" stroke-linecap="round">
    <line x1="50" y1="13" x2="50" y2="22"/><line x1="50" y1="78" x2="50" y2="87"/>
    <line x1="13" y1="50" x2="22" y2="50"/><line x1="78" y1="50" x2="87" y2="50"/></g></g></g>
<g transform="translate(94.0,73.5) scale(0.62)"><circle cx="50" cy="50" r="40" fill="none" stroke="#8A5E0F" stroke-width="6"/>
    <circle cx="50" cy="50" r="27" fill="none" stroke="#8A5E0F" stroke-width="4"/>
    <circle cx="50" cy="50" r="9" fill="#8A5E0F"/>
    <g stroke="#8A5E0F" stroke-width="4" stroke-linecap="round">
    <line x1="50" y1="13" x2="50" y2="22"/><line x1="50" y1="78" x2="50" y2="87"/>
    <line x1="13" y1="50" x2="22" y2="50"/><line x1="78" y1="50" x2="87" y2="50"/></g></g>
<g transform="translate(94.0,154.0) scale(0.62)"><circle cx="50" cy="50" r="40" fill="none" stroke="#8A5E0F" stroke-width="6"/>
    <circle cx="50" cy="50" r="27" fill="none" stroke="#8A5E0F" stroke-width="4"/>
    <circle cx="50" cy="50" r="9" fill="#8A5E0F"/>
    <g stroke="#8A5E0F" stroke-width="4" stroke-linecap="round">
    <line x1="50" y1="13" x2="50" y2="22"/><line x1="50" y1="78" x2="50" y2="87"/>
    <line x1="13" y1="50" x2="22" y2="50"/><line x1="78" y1="50" x2="87" y2="50"/></g></g>
<g transform="translate(94.0,234.5) scale(0.62)"><circle cx="50" cy="50" r="40" fill="none" stroke="#8A5E0F" stroke-width="6"/>
    <circle cx="50" cy="50" r="27" fill="none" stroke="#8A5E0F" stroke-width="4"/>
    <circle cx="50" cy="50" r="9" fill="#8A5E0F"/>
    <g stroke="#8A5E0F" stroke-width="4" stroke-linecap="round">
    <line x1="50" y1="13" x2="50" y2="22"/><line x1="50" y1="78" x2="50" y2="87"/>
    <line x1="13" y1="50" x2="22" y2="50"/><line x1="78" y1="50" x2="87" y2="50"/></g></g>
</svg>