<svg xmlns="http://www.w3.org/2000/svg" viewBox="0 0 260 364" width="260" height="364">
<defs><linearGradient id="bg" x1="0" y1="0" x2="0" y2="1"><stop offset="0%" stop-color="#FBF5E9"/><stop offset="100%" stop-color="#EFE1C8"/></linearGradient></defs>
<rect x="2.5" y="2.5" width="255" height="359" rx="24" fill="url(#bg)"/>
<rect x="13" y="13" width="234" height="338" rx="17" fill="none" stroke="#C9A24B" stroke-width="1.4"/>
<rect x="18" y="18" width="224" height="328" rx="13" fill="none" stroke="#C9A24B" stroke-opacity="0.45" stroke-width="0.8"/>
<rect x="2.5" y="2.5" width="255" height="359" rx="24" fill="none" stroke="#C9A24B" stroke-opacity="0.5" stroke-width="1.2"/>
<g transform="translate(40,60) rotate(0)"><text x="0" y="0" font-family="'Bodoni Moda','DejaVu Serif',serif" font-size="27" font-weight="600" fill="#2A1410" text-anchor="middle">12</text><g transform="translate(-9,11) scale(0.16)"><circle cx="50" cy="50" r="42" fill="#C9A24B"/><circle cx="50" cy="50" r="33" fill="none" stroke="#FBF5E9" stroke-width="3.5"/><polygon points="50,29 68,50 50,71 32,50" fill="#FBF5E9"/><circle cx="50" cy="50" r="4.5" fill="#C9A24B"/></g></g>
<g transform="translate(220,320) rotate(180)"><text x="0" y="0" font-family="'Bodoni Moda','DejaVu Serif',serif" font-size="27" font-weight="600" fill="#2A1410" text-anchor="middle">12</text><g transform="translate(-9,11) scale(0.16)"><circle cx="50" cy="50" r="42" fill="#C9A24B"/><circle cx="50" cy="50" r="33" fill="none" stroke="#FBF5E9" stroke-width="3.5"/><polygon points="50,29 68,50 50,71 32,50" fill="#FBF5E9"/><circle cx="50" cy="50" r="4.5" fill="#C9A24B"/></g></g>
<g transform="translate(47.0,101.0) scale(1.66)"><path d="M25,73 L75,73 L71,39 L58,55 L50,31 L42,55 L29,39 Z" fill="#C9A24B" stroke="#C9A24B" stroke-width="2" stroke-linejoin="round"/><rect x="25" y="75" width="50" height="9" rx="2.5" fill="#C9A24B"/><g fill="#FBF5E9"><circle cx="29" cy="39" r="3.4"/><circle cx="50" cy="31" r="3.4"/><circle cx="71" cy="39" r="3.4"/></g></g>
</svg>