<svg xmlns="http://www.w3.org/2000/svg" viewBox="0 0 250 350" width="250" height="350">
<rect x="3" y="3" width="244" height="344" rx="20" fill="#D9C58E" stroke="#C9BC9E" stroke-width="2"/>
<path d="M3,23 A20,20 0 0 1 23,3 L227,3 A20,20 0 0 1 247,23 L247,34 L3,34 Z" fill="#CDB877"/>
<text x="125.0" y="25" font-family="Inter,Helvetica,Arial,sans-serif" font-size="18" font-weight="700" letter-spacing="2" fill="#8A5E0F" text-anchor="middle">ORO</text>
<g transform="translate(30,70) rotate(0)"><text x="0" y="0" font-family="Inter,Helvetica,Arial,sans-serif" font-size="34" font-weight="800" fill="#8A5E0F" text-anchor="middle">11</text><g transform="translate(-9,8) scale(0.18)"><circle cx="50" cy="50" r="40" fill="none" stroke="#8A5E0F" stroke-width="6"/>
    <circle cx="50" cy="50" r="27" fill="none" stroke="#8A5E0F" stroke-width="4"/>
    <circle cx="50" cy="50" r="9" fill="#8A5E0F"/>
    <g stroke="#8A5E0F" stroke-width="4" stroke-linecap="round">
    <line x1="50" y1="13" x2="50" y2="22"/><line x1="50" y1="78" x2="50" y2="87"/>
    <line x1="13" y1="50" x2="22" y2="50"/><line x1="78" y1="50" x2="87" y2="50"/></g></g></g>
<g transform="translate(220,298) rotate(180)"><text x="0" y="0" font-family="Inter,Helvetica,Arial,sans-serif" font-size="34" font-weight="800" fill="#8A5E0F" text-anchor="middle">11</text><g transform="translate(-9,8) scale(0.18)"><circle cx="50" cy="50" r="40" fill="none" stroke="#8A5E0F" stroke-width="6"/>
    <circle cx="50" cy="50" r="27" fill="none" stroke="#8A5E0F" stroke-width="4"/>
    <circle cx="50" cy="50" r="9" fill="#8A5E0F"/>
    <g stroke="#8A5E0F" stroke-width="4" stroke-linecap="round">
    <line x1="50" y1="13" x2="50" y2="22"/><line x1="50" y1="78" x2="50" y2="87"/>
    <line x1="13" y1="50" x2="22" y2="50"/><line x1="78" y1="50" x2="87" y2="50"/></g></g></g>
<g transform="translate(60.0,116.0) scale(1.3)"><path d="M33,84 L33,62 Q33,44 47,38 L42,30 Q40,22 47,22 L52,30 Q66,34 70,52 L70,84 Z"
    fill="#8A5E0F" stroke="#8A5E0F" stroke-width="2" stroke-linejoin="round"/><circle cx="58" cy="46" r="2.8" fill="#FFFFFF"/></g>
</svg>